# xmcd
#
# Track frame offsets:
#	150
#	17427
#	32286
#	43397
#	56342
#	70687
#	87446
#	106267
#	122568
#	132021
#	147590
#	166036
#
# Disc length: 2495 seconds
#
# Revision: 0
# Processed by: cddbd v1.5.2PL0 Copyright (c) Steve Scherf et al.
# Submitted via: FairStars CD Ripper 1.60
#
DISCID=9409bd0c
DTITLE=Jann Arden - Uncover Me 2
DYEAR=2011
DGENRE=Count
TTITLE0=Last Night I Dreamt That Somebody Loved Me
TTITLE1=You Don't Own Me
TTITLE2=In My Room
TTITLE3=Que Sera Sera
TTITLE4=Love Hurts
TTITLE5=Dreams
TTITLE6=Mr. McLennen
TTITLE7=This Girls In Love With You
TTITLE8=The Glory Of Love
TTITLE9=Only The Lonley
TTITLE10=Misty Blue
TTITLE11=Is That All There Is?
EXTD=
EXTT0=
EXTT1=
EXTT2=
EXTT3=
EXTT4=
EXTT5=
EXTT6=
EXTT7=
EXTT8=
EXTT9=
EXTT10=
EXTT11=
PLAYORDER=
